<svg xmlns="http://www.w3.org/2000/svg" viewBox="0 0 526.44 448.28"><defs><style>.cls-1{fill:#fff;}</style></defs><g id="Ebene_1" data-name="Ebene 1"><ellipse class="cls-1" cx="272.11" cy="224.1" rx="253.28" ry="213.96"/><path d="M534.62,230.58c.27,96.72-74.24,175.07-161.9,206C251.41,482,92.48,441.92,30.4,321.85,8.12,278.72,2.07,227.44,14.67,180.47,30,121.82,72.41,72.68,124.41,43.57,239.44-22.06,400.9.4,486.89,103.09a223.57,223.57,0,0,1,17,23.46c1.93,2.87,4.07,7,5.93,10s3.7,7.21,5.36,10.26c12.46,26.05,19.57,54.87,19.41,83.8Zm-2.1,0C531.67,100.35,401.22,16.23,280.3,18.19,159.73,16.57,29.61,100.7,29.12,230.58,29.65,360.47,159.7,444.57,280.3,443c120.9,2,251.39-82.18,252.22-212.39Z" transform="translate(-8.19 -6.48)"/><path d="M505.23,235.29c.43,53.2-29.42,102.9-71.31,134.31C370.54,417.81,283.51,430,207.78,407.31c-76.94-22.15-145.06-88.13-144.91-172-.33-54.38,30.49-105.34,73.72-136.75C222.31,35.8,349.33,36.9,433.92,101c41.86,31.39,71.75,81.13,71.31,134.32Zm-.5,0C503.79,123.19,389.3,53.42,286.17,55c-103-1.5-217.47,68.29-218.31,180.3.87,112,115.26,181.78,218.31,180.29,103.11,1.58,217.63-68.21,218.56-180.29Z" transform="translate(-8.19 -6.48)"/><path d="M436.43,254.79" transform="translate(-8.19 -6.48)"/><path class="cls-1" d="M359.3,190.77V170.64a2.4,2.4,0,0,1,.66-.22c6.75,0,13.51-.07,20.26.07,3.77.07,7.23,1.27,8.74,5,1.58,3.94,2,8.13-1,11.6a8.45,8.45,0,0,1-5.21,2.85C375,190.5,367.23,190.55,359.3,190.77Z" transform="translate(-8.19 -6.48)"/><path d="M272.4,229.79a8.07,8.07,0,0,1,3.64-3.38,5.66,5.66,0,0,1,4.44-.08c.64.32,1,3,.48,4-.76,1.5-1.57,3-2.41,4.42Z" transform="translate(-8.19 -6.48)"/><path d="M268.32,232.56c-1.65-3.54.52-8.59,4-9.06" transform="translate(-8.19 -6.48)"/><path d="M443.3,238.86c4.06-.58-2.77,5.3-6.07,4.26" transform="translate(-8.19 -6.48)"/><path d="M431.11,236.56a8.48,8.48,0,0,1,4.38-3.57,7.6,7.6,0,0,1,5-.07c.72.29-1,1.51.54,3.7-.63,1-1.3,2-2,3C435.28,236.09,436.15,238.54,431.11,236.56Z" transform="translate(-8.19 -6.48)"/><path d="M237.52,226.91c-1.32.91-2.6,1.9-4,2.71-5.4,3.21-8.61,8.46-11.53,14a84.06,84.06,0,0,0-8.64,29.44,170.31,170.31,0,0,0-1.19,29.54c.53,9.56,1.4,19,3.91,28.22,2.33,8.51,5.69,16.58,11.73,22.8,4.58,4.7,10.28,7.15,16.8,6.37a49.31,49.31,0,0,0,8.55-1.56c6.77-2.08,11.66-6.93,15.37-13.17,6.27-10.53,9.6-22.18,10.8-34.54a190.55,190.55,0,0,0,1.33-19.94c-.07-7.87-.94-15.73-1.51-23.6a69.16,69.16,0,0,0-4.5-19.35c-2.56-6.77-5.77-13.21-11.26-17.9-1-.86-1-1.53-.05-2.43,2.44-2.28,5.38-1.64,7,1.43a3.53,3.53,0,0,0,2.07,1.58,19,19,0,0,0,11.17-.8,5.23,5.23,0,0,1,4-.1c1.24.46,2.9-.33,4.37-.63a21.09,21.09,0,0,1,2.94-.74c1,0,2,.26,1.11,1.85-.24.43,0,1.16,0,1.75a14.5,14.5,0,0,0,1.49-1.08c.49-.47.82-1.36,1.36-1.52,2.66-.81,5.36-1.46,8.06-2.07a1.55,1.55,0,0,1,1.3.57c1.15,1.67,2.44,1.29,3.87.58a10,10,0,0,1,2.47-.84c1.14-.22,1.66.5,2.35,1.49,1.39,2,2.95,4,5.45,4.52s4.82,1.09,7.24,1.55c1.92.36,2.52,1.49,2.5,3.56-.08,8.79,0,17.59,0,26.38,0,6.94.15,13.87.2,20.81.05,9.05.29,18.1,0,27.14-.15,5.13-.61,10.32-2.8,15.11-3.53,7.7-12.87,8.43-18,4.21-3-2.45-3.89-6.41-4.43-10.34-1.37-9.9-.6-19.86-.71-29.8-.06-5.71.23-11.42.27-17.14.07-8.92,0-17.84.09-26.75,0-3,.13-6,.22-9,.06-2.21-.69-3-2.73-2.75-3.46.35-6.92.71-10.39,1-2.25.18-2.81.65-2.85,3.07-.15,9.47-.25,18.93-.4,28.4-.23,14.31-.65,28.61-.65,42.91,0,9.19.44,18.39,3.26,27.24a32.54,32.54,0,0,0,8.5,14A21.86,21.86,0,0,0,316,359c3.74.21,7.54-.44,11.3-.86a18.59,18.59,0,0,0,3-1.14,1.3,1.3,0,0,1,1.11.37,1.16,1.16,0,0,1-.2,1,10.18,10.18,0,0,1-3.43,1.76c-1.5.22-2.69.41-3.75,1.84-2,2.75-5,2.56-7.86,2.18-1.6-.21-2.64.09-3.46,1.68a2.15,2.15,0,0,1-1.93.95c-3-1.17-5.89-.34-8.87-.27-3.51.09-5.66,1.64-7.58,4.29-1.33,1.83-2.76,2.64-5,1.76a3.67,3.67,0,0,0-3.32,1c-1.32,1.53-2.66,1.62-4.07.79-1.7-1-3.36-.77-5.14-.56a14.18,14.18,0,0,1-3.69-.39c-1-.15-1.95-.39-2.93-.58-.37-.06-.88.07-1.11-.15-2.62-2.53-4.18-.1-5.73,1.55-1,1-1.75,1-2.6.18a13,13,0,0,0-7.33-3.83,23.35,23.35,0,0,0-5.5-.7c-1.13.08-2.32-.86-3.5-1.26a7.82,7.82,0,0,0-2.75-.73c-5.49.27-10.58-.66-14.74-5a2.38,2.38,0,0,0-1.78-.82c-3.56.86-6.65-1.08-9.94-1.75a2.37,2.37,0,0,1-1.18-1c-1.32-1.85-3-2.15-5.13-2.32s-4-1.55-6-2.56c-1.3-.67-2.4-1.87-3.74-2.4a25.57,25.57,0,0,0-4.87-1c-.55-.09-1.14.09-1.7,0-1.39-.15-2.78-.37-4.18-.56a18.53,18.53,0,0,0-1.18-3.69c-1.23-2.2-3.35-2.74-5.59-2.8-2-.06-3.27-1.37-4.67-2.85-2.21-2.36-3.15-6.35-7.22-6.55-1.75-.08-3.38-2.5-3.26-4,.24.05.54,0,.71.14,4.51,3.61,9.37,3.22,14.28,1.29,12.58-4.93,20-14.76,23.09-28.6,1.09-4.92,1.59-9.91.43-15-1.34-5.82-4.4-8.3-10-8.58s-11,1.15-16.55,1.57c-5.17.39-7.46-1.63-7.8-7.23-.42-6.79,1.69-12.38,6.45-16.65a19.4,19.4,0,0,1,6.63-3.81c3.72-1.26,7,.84,8.12,4.94a32.56,32.56,0,0,1,.81,5.61c.21,2,.75,2.55,2.39,1.71,3.49-1.78,7-3.55,10.35-5.59a4.38,4.38,0,0,0,1.71-3.07c.35-7.95,0-15.82-3.2-23.21-.6-1.43-.52-2.21,1.16-2.54a7.76,7.76,0,0,0,2.81-1.61c1.51-1.11,2.9-1.33,4.2.31.8,1,1.6,1,2.65.29,2-1.35,4-2.32,6.69-1.15a5.62,5.62,0,0,0,6.93-1.8c1.36-1.72,3.16-2.67,5.42-1.52.54.27,1.34-.11,2-.1s1.21.11,1.82.17Z" transform="translate(-8.19 -6.48)"/><path d="M435.75,274.13l-.07.07c1.64-.8,3.46,1.29,2.79,2.74s-2.5,2.3-3.86,3.39c-2.94,2.34-3.76,5.86-4.75,9.1a58.64,58.64,0,0,1-5.5,12.47c-1.48,2.5-3.25,5-6.07,6.61a13.91,13.91,0,0,0-2.76,1.65c-1.72,1.62-1.26,4.1-2.35,6-2,3.54-8.2,4-11.3,7-2.4,2.32-2.59,5.83-5.3,7.92-2.13,1.64-5.36,2-7.6,3.56-2,1.37-2.92,3.46-4.32,5.24s-3.8,3.43-6.35,3a10.1,10.1,0,0,1,4.89-4.66c-.17-1-1.92-1.23-3-.73a21.2,21.2,0,0,0-2.68,2c-.95.62-2.57.87-3.28.06l-1.06,3.93-3.37-1.4c0,2.73-4.27,4-7.63,3.89s-7-.92-9.91.46c-1.42.67-2.44,1.78-3.81,2.5-1.53.8-4.32,1-5-.67-.76-1.83.54-4.63,1.07-6.4,10.41-34.36,5.19-67.72,5.21-103.39,0-1.38-2-9.18,1-9.71,1.66-.28,2.31,1.2,4,1.45.71.11,1.35.42,2.05.53,1.82.3,3.53-.7,5.21-1.33,4.63-1.73,8-.34,12.93.63-1.32,3.83-1.19,7.19-1.52,11.25l-7.17,88.11a1.58,1.58,0,0,0,.39,1.44,2.78,2.78,0,0,0,2.09.22l4.49-.72a4.05,4.05,0,0,0,2.21-.82,2.48,2.48,0,0,0,.52-1.8l.15-13.61a4.79,4.79,0,0,1,.86-3.26c1-1.18,2.93-1.54,4.67-1.83,13.63-2.22,28.26-5.61,36.44-14.71,5.11-5.69,6.95-12.91,7.34-19.94.85-15.3-5.32-31.5-19.82-41.35a19.83,19.83,0,0,1,6.28-.33c2.07.34,4.08,1.51,4.48,3.19.34,1.45-.47,3.18.72,4.3,1.58,1.49,4.54.18,6.34-1.15,3.9-1.32,5.4-.76,8.46.62,1.79.8,2.51-1.15,4.43-.56,4.57,1.42-1.33,12.71-1.72,16.65a5.68,5.68,0,0,0,.07,2.43,8.53,8.53,0,0,0,1.91,2.55A9.6,9.6,0,0,1,435.75,274.13Z" transform="translate(-8.19 -6.48)"/><path d="M126.55,233.42c.66-1.17-5.49-.36-9-.87h-4.43c-.88,0-1.77.11-2.64,0-2.91-.24-2.9-.26-2.9-3.54q0-34.45,0-68.9v-2.87c.78,0,1.45-.1,2.12-.1h31.15c5.2,0,10.18.82,14.76,3.77,9.66,6.23,10.21,25.25-.06,30.49a7,7,0,0,0-.78.61c.94.53,1.77.94,2.55,1.43,5.76,3.59,7.92,9.29,8,16.13.1,11.45-7.19,20.71-17.76,22a118.86,118.86,0,0,1-16.66.77m-9.27-13.33c7.12,0,14,.33,20.88-.11,5.3-.34,8-4.24,8-10.17,0-5.19-2.55-8.24-7.86-9.15a25.18,25.18,0,0,0-4-.3c-5.12,0-10.24,0-15.37,0-.54,0-1.08.08-1.78.14,0,6,0,11.83,0,17.67C121.55,217.84,121.6,218.51,121.62,219.1Zm0-32.46a6.53,6.53,0,0,0,1,.17c5.94,0,11.89,0,17.83-.13a14.26,14.26,0,0,0,4.57-1.13c2.36-.92,3.58-2.9,3.9-5.55.66-5.42-1.41-8.81-6.46-9.18-6.79-.51-13.63-.35-20.45-.47-.1,0-.2.12-.39.24Z" transform="translate(-8.19 -6.48)"/><path d="M260.85,228.25c-6.58-5.78-9.89-4.75-14.74-3.66-.62.14-3.39,1.48-3.77.77-8.69-16.16-13.9-26.86-22.54-43.05a6.46,6.46,0,0,0-1.72-2.25v52.31H204.51V157.18a96.31,96.31,0,0,0,10.62-.08c3.54-.4,5.3,1.07,7,4.36,7.86,15.33,16,30.48,24.1,45.7a3.51,3.51,0,0,0,1.33,1.52V157.36h13.53C261.09,182.32,260.85,203,260.85,228.25Z" transform="translate(-8.19 -6.48)"/><path d="M389.06,196.73a12.86,12.86,0,0,1,8,10.84c.33,2.63.4,5.29.5,7.94.11,3,.08,6,.19,9a8,8,0,0,0,2.25,5.67c.44.45.5,1.33.82,2.24-8.35-5.41-8-6.24-17.71-6,0,0,.22.58,0-2.16-.26-3.46-.22-6.94-.33-10.42,0-.74-.06-1.5-.15-2.24-.67-5.75-2.63-8.14-8-8.44-5.93-.33-11.88-.07-18.07-.07v29.24H342.3v-75c.52,0,.95-.13,1.37-.13,11.65,0,23.3-.06,34.94.14a24.68,24.68,0,0,1,8.54,1.6c12.92,5.11,16.41,23.64,7.09,33.95C392.87,194.39,391,195.34,389.06,196.73Zm-32.49-6.07c7.28-.22,14.42-.27,21.52-.79a7.68,7.68,0,0,0,4.8-2.85c2.74-3.47,2.38-7.66.93-11.6-1.39-3.77-4.57-5-8-5-6.21-.14-12.41-.07-18.62-.07a2.13,2.13,0,0,0-.6.22Z" transform="translate(-8.19 -6.48)"/><path d="M268.52,292.27c0,9.49-.45,18.92-3.18,28.06-1.82,6.12-4.46,11.72-9.65,15.16-4.75,3.16-10.09,2.8-14.2-1.66a25,25,0,0,1-5.62-9.57,68.76,68.76,0,0,1-3.45-20.19c-.06-6.6-.28-13.21.08-19.78.43-8.05,1.83-16,5.43-23.2,2.48-5,5.92-9,11.47-10.06,4.33-.79,8,.74,10.85,4.29A30.23,30.23,0,0,1,266.5,270c1.13,7.36,1.73,14.81,2.56,22.23Z" transform="translate(-8.19 -6.48)"/><path d="M163.17,327.05a12.25,12.25,0,0,1-2.5-1.93c-1-1.26-1.66-2.83-2.64-4.11-.82-1.06-2-1.83-2.86-2.83-.64-.73-1.58-1.65-1.56-2.44a6.27,6.27,0,0,0-2.24-5.13c-.82-.76-1.05-1.48-.08-2.35.32-.28.68-1.07.56-1.26a2.06,2.06,0,0,0-1.36-.94c-2.45,0-3.71-2.11-5.34-3.46-.51-.42-.57-2.07-.26-2.9.6-1.6.49-2.41-1-3.5-2.7-2-5.32-4.28-7-7.49a2.61,2.61,0,0,1-.45-1.09c.06-1.82-.21-3.33-2.07-4.1-.4-.16-.45-1.29-.67-2-.34-1.07-.7-2.13-1-3,.6-2.86,1.14-5.8,1.86-8.68a7.51,7.51,0,0,1,1.48-2.34c.51-.7,1.11-1.32,1.67-2a15.21,15.21,0,0,1-2-1.07,4.57,4.57,0,0,1-1.66-1.7c-.16-.38-6.15-1.13-5.69-1.49,2.37-1.83-3.81-4.21-3.74-6.33,0-1.24,5.24-5.81,3.57-6.06-1.32-.2-2.24-.92-1-1.79s-2.14-3.38-2-5c.25-3.92,11.08-.41,10-2.52-.24-.48.51-1.56.84-2.35.45-1.12.94-2.23,1.41-3.34l-.54-.46c-.51.3-1,.58-1.53.89a4.32,4.32,0,0,1-4.12.64c-.9-.33-2.12.33-3.19.52-.62.12-1.25.2-1.87.3a9.05,9.05,0,0,1,.14-2.1,15.38,15.38,0,0,1,1.15-2.1c.61-1.15,1.93-2.26.15-3.58a1.81,1.81,0,0,1,.24-1.36c.66-.19,1.65-.43,2.05-.06,1.68,1.56,3.55.81,5.27.59,1.5-.2,2.61-.31,3.71,1.09a3.83,3.83,0,0,0,2.59,1.34c3.34.12,6.69,0,10,0,.32,0,.76-.06.92.13,2.18,2.62,5.13,1.07,7.68,1.67a29.48,29.48,0,0,0,4.68.67,9.86,9.86,0,0,0,2.37-.39,7,7,0,0,1,2.36-.45c2.12.34,2.46,1.47,1.14,3.26C168,238.1,165,241.38,163,245.62a69.82,69.82,0,0,0-6,21,59.09,59.09,0,0,0,2.26,24.8c2.39,7.91,6.37,11,14.1,10.81,3-.08,6-.77,9.05-1.07a62.5,62.5,0,0,1,8.08-.51c2.06.07,2.74,1.22,2.9,3.51a13.62,13.62,0,0,1-5.87,12.49,25.69,25.69,0,0,1-7,3.53c-3.25,1.12-5.37-.28-6.48-3.74-.21-.65-.37-1.31-.54-2-.3-1.18-1-1.55-2-1.05-2.86,1.43-5.75,2.85-8.53,4.45a2.63,2.63,0,0,0-.87,2.17,43.94,43.94,0,0,0,1.2,4.71c.17.66.24,1.35.35,2Zm-27.08-57.37,1,1.58a6.93,6.93,0,0,0,1.28-1.77c.11-.33-.46-.93-.71-1.41Z" transform="translate(-8.19 -6.48)"/><path d="M269.7,221.18c.27-.92.45-1.62.67-2.31q11.78-35.52,23.52-71.07c.47-1.43,1.05-2,2.53-2,4.43.11,8.86.08,13.29,0a1.71,1.71,0,0,1,1.91,1.45q11.88,36.24,23.81,72.47c.12.38.19.78.34,1.42-5.06,0-10,0-14.88-.06-.43,0-1.06-.83-1.24-1.4q-1.9-6.21-3.64-12.48c-.32-1.16-.82-1.6-2-1.6q-11.38.09-22.79,0c-1.18,0-1.66.46-2,1.6q-1.86,6.22-3.88,12.39c-.2.59-.78,1.47-1.2,1.48C279.41,221.22,274.67,221.18,269.7,221.18Zm41.7-28.62c-2.86-9.69-5.66-19.2-8.46-28.7l-.5,0c-2.88,9.5-5.77,19-8.71,28.65Z" transform="translate(-8.19 -6.48)"/><path d="M434.74,182.15c.45-1,.77-1.62,1.05-2.28,4-9.55,8.12-19.09,12.13-28.66a2.22,2.22,0,0,1,2.4-1.69c4.81.08,9.62,0,14.81,0-.43.95-.73,1.65-1.07,2.32-8.23,16.55-15.32,30.76-21.22,42.75a10.21,10.21,0,0,0-1,4.24c-.09,7.9-.08,15.81,0,23.72,0,1.76-.45,2.4-2.15,2.34-3.54-.13-7.09-.12-10.63,0-1.57,0-1.92-.61-1.91-2.14.05-8,.07-15.95,0-23.92a9.89,9.89,0,0,0-1-4.23c-7.27-14.28-14.63-28.52-22-42.77-.33-.64-.63-1.3-1.11-2.32h5.28c3.35,0,6.71.06,10.07,0a2.38,2.38,0,0,1,2.59,1.73c4.16,9.56,8.41,19.09,12.64,28.62C434,180.53,434.28,181.18,434.74,182.15Z" transform="translate(-8.19 -6.48)"/><path d="M190.51,221.07c-3.06-2.33-8.17-3.85-14.27,0V146h14.27Z" transform="translate(-8.19 -6.48)"/><path d="M381.35,292.68c.15-3.62.27-7.19.47-10.76.36-6.58.81-13.16,1.12-19.74.09-2,.36-3.37,2.6-3.62,3.76-.43,7.48-1.31,11.24-1.64,4-.34,8,3.32,9.05,8.06a31,31,0,0,1-.82,16.87,12.53,12.53,0,0,1-8.5,8.13c-4.6,1.37-9.41,1.94-14.13,2.84A4.49,4.49,0,0,1,381.35,292.68Z" transform="translate(-8.19 -6.48)"/><path d="M224.23,391.56c1.9.6,4,.79,5.66,1.86,4.11,2.6,8.11,3.73,12.6,1.38,5.7-3,11.79-2.6,17.95.73a3.85,3.85,0,0,1-.22.82c-5-.48-9.65.5-13.8,4.21-.72.64-2.09.33-3.14.25-3.15-.26-6.29-.58-9.43-.94-4.55-.53-7.94-3-9.62-8.37Z" transform="translate(-8.19 -6.48)"/><path d="M264.36,395.7c8,.51,16.05,1.25,24.08,1.41,3.27.07,6.54-1.26,9.84-1.67a33.1,33.1,0,0,1,10.61.15c-2.75,2-5.5,3.91-8.26,5.84a1.21,1.21,0,0,1-.77.22c-4.85-.39-9.72-.63-14.55-1.25-4.18-.54-8.31-1.59-12.48-2.26-2.84-.47-5.71-.69-8.56-1Z" transform="translate(-8.19 -6.48)"/><path d="M372.43,380.78c-4,3.91-16.7,10-19.91,9.31,1.38-1.07,2-2.68,4.3-1.95,1.21.39,3-.75,4.35-1.5,2.4-1.3,4.68-2.85,7-4.26,1.32-.79,2.68-1.5,4-2.24Z" transform="translate(-8.19 -6.48)"/><path d="M219.91,393.36c-1,0-2.22.44-2.95-.07-3.42-2.42-6.69-5.12-10-7.68a4.42,4.42,0,0,0-1.94-1.05c-3-.31-6.23,0-7.93-4.06-.21-.51-1.79-.22-2.73-.41-1.25-.25-2.48-.6-3.73-.91l-.08-1.21c.72-.26,1.56-.94,2.13-.71,2.57,1.06,5,2.6,7.61,3.54s5.93.29,7.38,2.07c1.9,2.32,3.37,4,6.24,4.79,2.33.62,4.3,3.07,6.42,4.71C220.17,392.7,220,393,219.91,393.36Z" transform="translate(-8.19 -6.48)"/><path d="M373.66,379.12l12.72-8.24c-.15,1.22-.15,1.22-5.84,4.86l-6.44,4.12Z" transform="translate(-8.19 -6.48)"/><path d="M119.89,238.79c-.64-2.06-.19-3.8,1.24-4.48a1.72,1.72,0,0,1,1.37,0c.2.1.31.93.15,1.24-.64,1.27-1.4,2.46-2.12,3.68Z" transform="translate(-8.19 -6.48)"/><path d="M136.31,239.75l-2.3,2.58c-.39-.48-1.19-1.22-1.09-1.39a8.76,8.76,0,0,1,1.81-2.2C134.84,238.63,135.48,239.21,136.31,239.75Z" transform="translate(-8.19 -6.48)"/><path d="M116,241.9c-1.08,1.88-2,3.5-3,5.21C111.77,245.08,113.37,242.17,116,241.9Z" transform="translate(-8.19 -6.48)"/><path d="M132.67,267.66l1,2.52-1.4.55c-.18-.91-.37-1.82-.56-2.74Z" transform="translate(-8.19 -6.48)"/><path d="M208.4,231.63a14.17,14.17,0,0,1-2,1.14c-.09,0-.49-.76-.75-1.16l2.16-1.12Z" transform="translate(-8.19 -6.48)"/><path d="M224.23,396.7c-1.07,1.19-1.92,1.37-2.65-.43-.23-.59-.93-1-1.29-1.7l3.93,2.17S224.23,396.7,224.23,396.7Z" transform="translate(-8.19 -6.48)"/><path d="M416.88,343c-.41,1.1-.72,2.33-2.63,1.95l2-2.71C416.43,342.44,416.65,342.7,416.88,343Z" transform="translate(-8.19 -6.48)"/><path d="M185.21,371.44l-2.8-3.17.39-.42,2.87,3.09Z" transform="translate(-8.19 -6.48)"/><path d="M445.67,265.52a9,9,0,0,1-1.05-1.52c-.05-.13.39-.51.6-.78a9.06,9.06,0,0,1,1.13,1.19C446.41,264.51,446,265,445.67,265.52Z" transform="translate(-8.19 -6.48)"/><path class="cls-1" d="M121.62,219.1c0-.59-.07-1.26-.07-1.93,0-5.84,0-11.69,0-17.67.7-.06,1.24-.14,1.78-.14,5.13,0,10.25,0,15.37,0a25.18,25.18,0,0,1,4,.3c5.31.91,7.9,4,7.86,9.15,0,5.93-2.73,9.83-8,10.17C135.64,219.43,128.74,219.1,121.62,219.1Z" transform="translate(-8.19 -6.48)"/><path class="cls-1" d="M121.66,186.64v-16c.19-.12.29-.24.39-.24,6.82.12,13.66,0,20.45.47,5.05.37,7.12,3.76,6.46,9.18-.32,2.65-1.54,4.63-3.9,5.55a14.26,14.26,0,0,1-4.57,1.13c-5.94.16-11.89.11-17.83.13A6.53,6.53,0,0,1,121.66,186.64Z" transform="translate(-8.19 -6.48)"/><path class="cls-1" d="M311.4,192.56H293.73c2-6.62,4.9-16.1,8.71-28.65l.5,0C305.74,173.36,308.54,182.87,311.4,192.56Z" transform="translate(-8.19 -6.48)"/></g></svg>